<svg xmlns="http://www.w3.org/2000/svg" xmlns:xlink="http://www.w3.org/1999/xlink" version="1.1" width="96" height="96" viewBox="4.8 -9.6 96.0 129.6">
<path d="M4.096 78c-0.212 0-0.42-0.032-0.632-0.1-1.052-0.352-1.604-1.492-1.252-2.532l18.868-56c0.272-0.82 1.040-1.368 1.9-1.368v0c0.86 0 1.612 0.556 1.896 1.368l18.864 56c0.352 1.056-0.212 2.18-1.256 2.532-1.040 0.352-2.18-0.212-2.532-1.252l-16.972-50.372-16.968 50.372c-0.3 0.828-1.080 1.352-1.916 1.352z" fill="#000000"/>
	<path d="M7.896 58h28v4h-28v-4z" fill="#000000"/>
	<path d="M91.896 78h-38.428c-0.744 0-1.416-0.416-1.76-1.072-0.356-0.656-0.3-1.444 0.112-2.072l36.28-52.864h-28.204c-1.1 0-2-0.9-2-2s0.9-2 2-2h32c0.744 0 1.42 0.416 1.764 1.072 0.352 0.664 0.304 1.448-0.116 2.072l-36.284 52.864h34.632c1.1 0 2 0.9 2 2s-0.896 2-1.996 2z" fill="#000000"/>
	<path d="M55.896 46h-16c-1.1 0-2-0.9-2-2s0.9-2 2-2h16c1.1 0 2 0.9 2 2s-0.9 2-2 2z" fill="#000000"/>
	<path d="M51.896 55.752c-0.444 0-0.9-0.148-1.264-0.444-0.852-0.704-0.976-1.96-0.28-2.812l6.96-8.484-6.96-8.48c-0.696-0.856-0.572-2.104 0.28-2.816 0.844-0.696 2.112-0.584 2.812 0.272l8 9.752c0.604 0.748 0.604 1.8 0 2.54l-8 9.752c-0.396 0.468-0.972 0.72-1.548 0.72z" fill="#000000"/>
<text x="0.0" y="112.8" font-size="4.8" font-weight="bold" font-family="Helvetica Neue, Helvetica, Arial-Unicode, Arial, Sans-serif" fill="#000000">Created by iconsmind.com</text><text x="0.0" y="117.6" font-size="4.8" font-weight="bold" font-family="Helvetica Neue, Helvetica, Arial-Unicode, Arial, Sans-serif" fill="#000000">from the Noun Project</text></svg>