<svg xmlns="http://www.w3.org/2000/svg" xmlns:xlink="http://www.w3.org/1999/xlink" version="1.1" id="Your_Icon" x="0px" y="0px" width="100px" height="100px" viewBox="5.0 -10.0 100.0 135.0" enable-background="new 0 0 100 100" xml:space="preserve">
<g>
	<path d="M91.952,12.107H72.972V7.931c0-1.687-1.361-3.048-3.048-3.048c-1.687,0-3.048,1.362-3.048,3.048v4.176H33.114V7.931   c0-1.687-1.362-3.048-3.048-3.048c-1.676,0-3.048,1.362-3.048,3.048v4.176H8.048C6.361,12.107,5,13.469,5,15.155v76.914   c0,1.676,1.361,3.048,3.048,3.048h83.904c1.676,0,3.048-1.372,3.048-3.048V15.155C95,13.469,93.628,12.107,91.952,12.107z    M11.096,18.203h15.921v4.176c0,1.687,1.372,3.048,3.048,3.048c1.687,0,3.048-1.362,3.048-3.048v-4.176h33.763v4.176   c0,1.687,1.362,3.048,3.048,3.048c1.687,0,3.048-1.362,3.048-3.048v-4.176h15.931v16.856H11.096V18.203z M88.904,89.021H11.096   V41.155h77.808V89.021z"/>
</g>
<g>
	<path d="M42.996,80.241c-1.122,0-2.032-0.91-2.032-2.032V55.281H37.4c-1.122,0-2.032-0.91-2.032-2.032   c0-1.122,0.91-2.032,2.032-2.032h5.597c1.122,0,2.032,0.91,2.032,2.032v24.96C45.028,79.332,44.119,80.241,42.996,80.241z"/>
</g>
<g>
	<path d="M62.594,80.241c-1.122,0-2.032-0.91-2.032-2.032V55.281h-3.565c-1.122,0-2.032-0.91-2.032-2.032   c0-1.122,0.91-2.032,2.032-2.032h5.597c1.122,0,2.032,0.91,2.032,2.032v24.96C64.626,79.332,63.716,80.241,62.594,80.241z"/>
</g>
<text x="0.0" y="117.5" font-size="5.0" font-weight="bold" font-family="Helvetica Neue, Helvetica, Arial-Unicode, Arial, Sans-serif" fill="#000000">Created by Garrett Knoll</text><text x="0.0" y="122.5" font-size="5.0" font-weight="bold" font-family="Helvetica Neue, Helvetica, Arial-Unicode, Arial, Sans-serif" fill="#000000">from the Noun Project</text></svg>