<svg xmlns="http://www.w3.org/2000/svg" xmlns:xlink="http://www.w3.org/1999/xlink" version="1.1" x="0px" y="0px" width="100px" height="100px" viewBox="5.0 -10.0 100.0 135.0" enable-background="new 0 0 100 100" xml:space="preserve">
<g id="Captions">
</g>
<g id="Your_Icon">
	<path d="M50,0C22.386,0,0,22.386,0,50s22.386,50,50,50c27.613,0,50-22.386,50-50S77.613,0,50,0z M50,96C24.595,96,4,75.405,4,50   S24.595,4,50,4s46,20.595,46,46S75.405,96,50,96z"/>
	<polygon points="48,12 48,49.171 34.443,62.728 37.272,65.556 50.828,52 52,50.828 52,45.171 52,12  "/>
</g>
<text x="0.0" y="117.5" font-size="5.0" font-weight="bold" font-family="Helvetica Neue, Helvetica, Arial-Unicode, Arial, Sans-serif" fill="#000000">Created by Tobias Klepp</text><text x="0.0" y="122.5" font-size="5.0" font-weight="bold" font-family="Helvetica Neue, Helvetica, Arial-Unicode, Arial, Sans-serif" fill="#000000">from the Noun Project</text></svg>